{
  "accessors": [
    {
      "bufferView": 2,
      "componentType": 5126,
      "count": 65533,
      "max": [
        152.30810546875,
        115.06819152832031,
        108.76786041259766
      ],
      "min": [
        -87.069778442382812,
        -98.678184509277344,
        -131.81367492675781
      ],
      "type": "VEC3"
    },
    {
      "bufferView": 2,
      "byteOffset": 786396,
      "componentType": 5126,
      "count": 65533,
      "max": [
        0.99999839067459106,
        1,
        1
      ],
      "min": [
        -0.99999892711639404,
        -1,
        -1
      ],
      "type": "VEC3"
    },
    {
      "bufferView": 1,
      "componentType": 5126,
      "count": 65533,
      "max": [
        10.547592163085938,
        1.6942641735076904
      ],
      "min": [
        -123.31342315673828,
        -0.73259544372558594
      ],
      "type": "VEC2"
    },
    {
      "bufferView": 1,
      "byteOffset": 524264,
      "componentType": 5126,
      "count": 65533,
      "max": [
        0.99375259876251221,
        0.99950003623962402
      ],
      "min": [
        0.00050000002374872565,
        0.00050000002374872565
      ],
      "type": "VEC2"
    },
    {
      "bufferView": 0,
      "componentType": 5125,
      "count": 103497,
      "max": [
        65532
      ],
      "min": [
        0
      ],
      "type": "SCALAR"
    },
    {
      "bufferView": 2,
      "byteOffset": 1572792,
      "componentType": 5126,
      "count": 30966,
      "max": [
        153.34732055664062,
        91.085342407226562,
        137.53025817871094
      ],
      "min": [
        -118.90239715576172,
        -109.50437164306641,
        -138.53289794921875
      ],
      "type": "VEC3"
    },
    {
      "bufferView": 2,
      "byteOffset": 1944384,
      "componentType": 5126,
      "count": 30966,
      "max": [
        0.99999058246612549,
        1,
        0.99999994039535522
      ],
      "min": [
        -0.99999052286148071,
        -1,
        -0.99999910593032837
      ],
      "type": "VEC3"
    },
    {
      "bufferView": 1,
      "byteOffset": 1048528,
      "componentType": 5126,
      "count": 30966,
      "max": [
        7.668576717376709,
        1.3193271160125732
      ],
      "min": [
        0.17568139731884003,
        0.0011353492736816406
      ],
      "type": "VEC2"
    },
    {
      "bufferView": 1,
      "byteOffset": 1296256,
      "componentType": 5126,
      "count": 30966,
      "max": [
        0.99359220266342163,
        0.9932330846786499
      ],
      "min": [
        0.00050000002374872565,
        0.00050000002374872565
      ],
      "type": "VEC2"
    },
    {
      "bufferView": 0,
      "byteOffset": 413988,
      "componentType": 5125,
      "count": 51639,
      "max": [
        30965
      ],
      "min": [
        0
      ],
      "type": "SCALAR"
    },
    {
      "bufferView": 2,
      "byteOffset": 2315976,
      "componentType": 5126,
      "count": 311,
      "max": [
        145,
        145,
        67.282981872558594
      ],
      "min": [
        -145,
        -136.84461975097656,
        0
      ],
      "type": "VEC3"
    },
    {
      "bufferView": 2,
      "byteOffset": 2319708,
      "componentType": 5126,
      "count": 311,
      "max": [
        0.99884688854217529,
        1,
        1
      ],
      "min": [
        -0.99964624643325806,
        -0.99922609329223633,
        -1
      ],
      "type": "VEC3"
    },
    {
      "bufferView": 1,
      "byteOffset": 1543984,
      "componentType": 5126,
      "count": 311,
      "max": [
        0.9375,
        1
      ],
      "min": [
        -0.0625,
        0
      ],
      "type": "VEC2"
    },
    {
      "bufferView": 1,
      "byteOffset": 1546472,
      "componentType": 5126,
      "count": 311,
      "max": [
        145,
        145
      ],
      "min": [
        -145,
        -136.84461975097656
      ],
      "type": "VEC2"
    },
    {
      "bufferView": 0,
      "byteOffset": 620544,
      "componentType": 5125,
      "count": 561,
      "max": [
        310
      ],
      "min": [
        0
      ],
      "type": "SCALAR"
    },
    {
      "bufferView": 2,
      "byteOffset": 2323440,
      "componentType": 5126,
      "count": 22,
      "max": [
        91.265411376953125,
        67.946517944335938,
        80.156906127929688
      ],
      "min": [
        20.315664291381836,
        -11.314477920532227,
        -3.0200691223144531
      ],
      "type": "VEC3"
    },
    {
      "bufferView": 2,
      "byteOffset": 2323704,
      "componentType": 5126,
      "count": 22,
      "max": [
        0.9999619722366333,
        3.3694536227812932e-07,
        0.99275237321853638
      ],
      "min": [
        -0.99996203184127808,
        -0.11956190317869186,
        -0.99973618984222412
      ],
      "type": "VEC3"
    },
    {
      "bufferView": 1,
      "byteOffset": 1548960,
      "componentType": 5126,
      "count": 22,
      "max": [
        1.8638774156570435,
        0.51351732015609741
      ],
      "min": [
        1.6906434297561646,
        0.31994861364364624
      ],
      "type": "VEC2"
    },
    {
      "bufferView": 1,
      "byteOffset": 1549136,
      "componentType": 5126,
      "count": 22,
      "max": [
        91.265411376953125,
        67.946517944335938
      ],
      "min": [
        20.315666198730469,
        -11.314474105834961
      ],
      "type": "VEC2"
    },
    {
      "bufferView": 0,
      "byteOffset": 622788,
      "componentType": 5125,
      "count": 42,
      "max": [
        21
      ],
      "min": [
        0
      ],
      "type": "SCALAR"
    },
    {
      "bufferView": 2,
      "byteOffset": 2323968,
      "componentType": 5126,
      "count": 269,
      "max": [
        270.90823364257812,
        -25.051349639892578,
        68.495559692382812
      ],
      "min": [
        -0.40289306640625,
        -165.79457092285156,
        -174.61123657226562
      ],
      "type": "VEC3"
    },
    {
      "bufferView": 2,
      "byteOffset": 2327196,
      "componentType": 5126,
      "count": 269,
      "max": [
        0.14600935578346252,
        0.93636792898178101,
        0.91304850578308105
      ],
      "min": [
        -0.55887603759765625,
        -0.9363178014755249,
        -0.32424134016036987
      ],
      "type": "VEC3"
    },
    {
      "bufferView": 1,
      "byteOffset": 1549312,
      "componentType": 5126,
      "count": 269,
      "max": [
        0.97071027755737305,
        0.98256123065948486
      ],
      "min": [
        0.033774439245462418,
        0.034185044467449188
      ],
      "type": "VEC2"
    },
    {
      "bufferView": 1,
      "byteOffset": 1551464,
      "componentType": 5126,
      "count": 269,
      "max": [
        0.99587923288345337,
        0.99950003623962402
      ],
      "min": [
        0.00050000002374872565,
        0.00050000002374872565
      ],
      "type": "VEC2"
    },
    {
      "bufferView": 0,
      "byteOffset": 622956,
      "componentType": 5125,
      "count": 390,
      "max": [
        268
      ],
      "min": [
        0
      ],
      "type": "SCALAR"
    },
    {
      "bufferView": 2,
      "byteOffset": 2330424,
      "componentType": 5126,
      "count": 15366,
      "max": [
        171.82614135742188,
        102.83036804199219,
        126.30818939208984
      ],
      "min": [
        -106.58383941650391,
        -102.95679473876953,
        -144.12899780273438
      ],
      "type": "VEC3"
    },
    {
      "bufferView": 2,
      "byteOffset": 2514816,
      "componentType": 5126,
      "count": 15366,
      "max": [
        0.002308674855157733,
        0.99999743700027466,
        0.56592875719070435
      ],
      "min": [
        -0.32382726669311523,
        0.81115144491195679,
        -8.5282292275223881e-05
      ],
      "type": "VEC3"
    },
    {
      "bufferView": 1,
      "byteOffset": 1553616,
      "componentType": 5126,
      "count": 15366,
      "max": [
        0.99051833152770996,
        0.99542731046676636
      ],
      "min": [
        0.0051402505487203598,
        0.016520213335752487
      ],
      "type": "VEC2"
    },
    {
      "bufferView": 1,
      "byteOffset": 1676544,
      "componentType": 5126,
      "count": 15366,
      "max": [
        0.99950003623962402,
        0.98833799362182617
      ],
      "min": [
        0.00050000002374872565,
        0.00050000002374872565
      ],
      "type": "VEC2"
    },
    {
      "bufferView": 0,
      "byteOffset": 624516,
      "componentType": 5125,
      "count": 26604,
      "max": [
        15365
      ],
      "min": [
        0
      ],
      "type": "SCALAR"
    }
  ],
  "asset": {
    "extras": {
      "author": "TatianaDevos (https://sketchfab.com/TatianaDevos)",
      "license": "CC-BY-4.0 (http://creativecommons.org/licenses/by/4.0/)",
      "source": "https://sketchfab.com/3d-models/viking-test-1e5c4095c4f94fec80eec7c37f138ed5",
      "title": "Viking TEST"
    },
    "generator": "Sketchfab-8.55.0",
    "version": "2.0"
  },
  "bufferViews": [
    {
      "buffer": 0,
      "byteLength": 730932,
      "byteOffset": 0,
      "name": "floatBufferViews",
      "target": 34963
    },
    {
      "buffer": 0,
      "byteLength": 1799472,
      "byteOffset": 730932,
      "byteStride": 8,
      "name": "floatBufferViews",
      "target": 34962
    },
    {
      "buffer": 0,
      "byteLength": 2699208,
      "byteOffset": 2530404,
      "byteStride": 12,
      "name": "floatBufferViews",
      "target": 34962
    }
  ],
  "buffers": [
    {
      "byteLength": 5229612,
      "uri": "scene.bin"
    }
  ],
  "images": [
    {
      "uri": "textures/House_baseColor.jpeg"
    },
    {
      "uri": "textures/ground_baseColor.jpeg"
    },
    {
      "uri": "textures/Nature_baseColor.png"
    }
  ],
  "materials": [
    {
      "doubleSided": true,
      "emissiveFactor": [
        0,
        0,
        0
      ],
      "name": "House",
      "pbrMetallicRoughness": {
        "baseColorFactor": [
          1,
          1,
          1,
          1
        ],
        "baseColorTexture": {
          "index": 0,
          "texCoord": 0
        },
        "metallicFactor": 0,
        "roughnessFactor": 0.59999999999999998
      }
    },
    {
      "doubleSided": true,
      "emissiveFactor": [
        0,
        0,
        0
      ],
      "name": "pedestal",
      "pbrMetallicRoughness": {
        "baseColorFactor": [
          0.020742511599999989,
          0.014570361600000003,
          0.0042534637999999993,
          1
        ],
        "metallicFactor": 0,
        "roughnessFactor": 0.59999999999999998
      }
    },
    {
      "doubleSided": true,
      "emissiveFactor": [
        1,
        1,
        1
      ],
      "name": "Windows",
      "pbrMetallicRoughness": {
        "metallicFactor": 0,
        "roughnessFactor": 0.59999999999999998
      }
    },
    {
      "doubleSided": true,
      "emissiveFactor": [
        0,
        0,
        0
      ],
      "name": "ground",
      "pbrMetallicRoughness": {
        "baseColorFactor": [
          1,
          1,
          1,
          1
        ],
        "baseColorTexture": {
          "index": 1,
          "texCoord": 0
        },
        "metallicFactor": 0,
        "roughnessFactor": 0.59999999999999998
      }
    },
    {
      "alphaCutoff": 0.40000000000000002,
      "alphaMode": "MASK",
      "doubleSided": true,
      "name": "Nature",
      "pbrMetallicRoughness": {
        "baseColorFactor": [
          1,
          1,
          1,
          1
        ],
        "baseColorTexture": {
          "index": 2,
          "texCoord": 0
        },
        "metallicFactor": 0,
        "roughnessFactor": 0.59999999999999998
      }
    }
  ],
  "meshes": [
    {
      "name": "House_House_0",
      "primitives": [
        {
          "attributes": {
            "NORMAL": 1,
            "POSITION": 0,
            "TEXCOORD_0": 2,
            "TEXCOORD_1": 3
          },
          "indices": 4,
          "material": 0,
          "mode": 4
        }
      ]
    },
    {
      "name": "House_House_0",
      "primitives": [
        {
          "attributes": {
            "NORMAL": 6,
            "POSITION": 5,
            "TEXCOORD_0": 7,
            "TEXCOORD_1": 8
          },
          "indices": 9,
          "material": 0,
          "mode": 4
        }
      ]
    },
    {
      "name": "Pedestal_pedestal_0",
      "primitives": [
        {
          "attributes": {
            "NORMAL": 11,
            "POSITION": 10,
            "TEXCOORD_0": 12,
            "TEXCOORD_1": 13
          },
          "indices": 14,
          "material": 1,
          "mode": 4
        }
      ]
    },
    {
      "name": "WIndows_Windows_0",
      "primitives": [
        {
          "attributes": {
            "NORMAL": 16,
            "POSITION": 15,
            "TEXCOORD_0": 17,
            "TEXCOORD_1": 18
          },
          "indices": 19,
          "material": 2,
          "mode": 4
        }
      ]
    },
    {
      "name": "Ground_ground_0",
      "primitives": [
        {
          "attributes": {
            "NORMAL": 21,
            "POSITION": 20,
            "TEXCOORD_0": 22,
            "TEXCOORD_1": 23
          },
          "indices": 24,
          "material": 3,
          "mode": 4
        }
      ]
    },
    {
      "name": "Object041_Nature_0",
      "primitives": [
        {
          "attributes": {
            "NORMAL": 26,
            "POSITION": 25,
            "TEXCOORD_0": 27,
            "TEXCOORD_1": 28
          },
          "indices": 29,
          "material": 4,
          "mode": 4
        }
      ]
    }
  ],
  "nodes": [
    {
      "children": [
        1
      ],
      "name": "RootNode (gltf orientation matrix)",
      "rotation": [
        -0.70710678118654746,
        -0,
        -0,
        0.70710678118654757
      ]
    },
    {
      "children": [
        2
      ],
      "name": "RootNode (model correction matrix)"
    },
    {
      "children": [
        3
      ],
      "matrix": [
        1,
        0,
        0,
        0,
        0,
        0,
        1,
        0,
        0,
        -1,
        0,
        0,
        0,
        0,
        0,
        1
      ],
      "name": "a52a4d1855bd46b8a4643fdf197973b2.fbx"
    },
    {
      "children": [
        4,
        8,
        11,
        14,
        17
      ],
      "name": "RootNode"
    },
    {
      "children": [
        5
      ],
      "matrix": [
        0.95385700464248468,
        -5.9519354445036569e-08,
        -4.4417428068933713e-10,
        0,
        -4.4417782831929805e-10,
        -5.6854307716434737e-08,
        -0.95385700464248502,
        0,
        5.9519354418561621e-08,
        0.95385700464248313,
        -5.6854307716434737e-08,
        0,
        9.5727005004882812,
        68.32489013671875,
        37.488208770751953,
        1
      ],
      "name": "House"
    },
    {
      "children": [
        6,
        7
      ],
      "matrix": [
        -0.99996192538815143,
        0.0087262691924063045,
        5.1222740775613609e-08,
        0,
        4.0763033228115985e-08,
        -1.1988238448147127e-06,
        0.99999999999928058,
        0,
        0.0087262691924614357,
        0.99996192538743411,
        1.1984224908610989e-06,
        0,
        17.2261848449707,
        0.35101336240768399,
        -2.7819137573242201,
        1
      ],
      "name": ""
    },
    {
      "mesh": 0,
      "name": "House_House_0"
    },
    {
      "mesh": 1,
      "name": "House_House_0"
    },
    {
      "children": [
        9
      ],
      "matrix": [
        0.98572882828105113,
        2.0679478504288433e-17,
        -0.12328858275455749,
        0,
        -0.12328858275455749,
        1.1029055202287164e-16,
        -0.98572882828105113,
        0,
        0,
        1,
        1.1102230246251565e-16,
        0,
        2.1159768104553223,
        -21.980213165283203,
        39.832931518554688,
        1
      ],
      "name": "Pedestal"
    },
    {
      "children": [
        10
      ],
      "matrix": [
        1,
        0,
        -0,
        0,
        0,
        1,
        0,
        0,
        0,
        0,
        1,
        0,
        1.19209289550781e-07,
        -4.0776891708373997,
        -33.641490936279297,
        1
      ],
      "name": ""
    },
    {
      "mesh": 2,
      "name": "Pedestal_pedestal_0"
    },
    {
      "children": [
        12
      ],
      "matrix": [
        0.95385700464248468,
        -5.9519354445036569e-08,
        -4.4417428068932452e-10,
        0,
        -4.4417428068931821e-10,
        1.0589940087540734e-16,
        -0.95385700464248657,
        0,
        5.9519354445036582e-08,
        0.95385700464248468,
        1.0589940087540734e-16,
        0,
        -26.889123916625977,
        92.680831909179688,
        -0.09832000732421875,
        1
      ],
      "name": "WIndows"
    },
    {
      "children": [
        13
      ],
      "matrix": [
        -0.99996192538815143,
        0.0087262691924063045,
        5.1222740775613609e-08,
        0,
        4.0763033228115985e-08,
        -1.1988238448147127e-06,
        0.99999999999928058,
        0,
        0.0087262691924614357,
        0.99996192538743411,
        1.1984224908610989e-06,
        0,
        55.451850891113303,
        -39.053764343261697,
        -28.316074371337901,
        1
      ],
      "name": ""
    },
    {
      "mesh": 3,
      "name": "WIndows_Windows_0"
    },
    {
      "children": [
        15
      ],
      "matrix": [
        1,
        0,
        0,
        0,
        0,
        2.9802322165650708e-08,
        -0.99999999999999956,
        0,
        0,
        0.99999999999999956,
        2.9802322165650708e-08,
        0,
        0.14418411254882812,
        -10.879112243652344,
        48.788818359375,
        1
      ],
      "name": "Ground"
    },
    {
      "children": [
        16
      ],
      "matrix": [
        0.35519896617916669,
        0.9006796634947335,
        -0.25021957995381766,
        0,
        -0.24947983862019615,
        0.34930300878152915,
        0.90318725532317601,
        0,
        0.90088484533112889,
        -0.25838643893049945,
        0.34877348469963021,
        0,
        -24.048713684081999,
        -102.197235107422,
        138.53283691406301,
        1
      ],
      "name": ""
    },
    {
      "mesh": 4,
      "name": "Ground_ground_0"
    },
    {
      "children": [
        18
      ],
      "matrix": [
        0.95385700464248468,
        -5.9519354445036569e-08,
        -4.4417428068932452e-10,
        0,
        -4.4417428068931821e-10,
        1.0589940087540734e-16,
        -0.95385700464248657,
        0,
        5.9519354445036582e-08,
        0.95385700464248468,
        1.0589940087540734e-16,
        0,
        9.5727005004882812,
        68.32489013671875,
        37.488208770751953,
        1
      ],
      "name": "Object041"
    },
    {
      "children": [
        19
      ],
      "matrix": [
        -0.99996192538815143,
        0.0087262691924063045,
        5.1222740775613609e-08,
        0,
        4.0763033228115985e-08,
        -1.1988238448147127e-06,
        0.99999999999928058,
        0,
        0.0087262691924614357,
        0.99996192538743411,
        1.1984224908610989e-06,
        0,
        17.2261848449707,
        0.35101336240768399,
        -2.7819137573242201,
        1
      ],
      "name": ""
    },
    {
      "mesh": 5,
      "name": "Object041_Nature_0"
    }
  ],
  "samplers": [
    {
      "magFilter": 9729,
      "minFilter": 9987,
      "wrapS": 10497,
      "wrapT": 10497
    }
  ],
  "scene": 0,
  "scenes": [
    {
      "name": "OSG_Scene",
      "nodes": [
        0
      ]
    }
  ],
  "textures": [
    {
      "sampler": 0,
      "source": 0
    },
    {
      "sampler": 0,
      "source": 1
    },
    {
      "sampler": 0,
      "source": 2
    }
  ]
}

